<?xml version="1.0" encoding="iso-8859-1"?>
<!-- Uploaded to: SVG Repo, www.svgrepo.com, Generator: SVG Repo Mixer Tools -->
<svg height="800px" width="800px" version="1.1" id="Layer_1" xmlns="http://www.w3.org/2000/svg" xmlns:xlink="http://www.w3.org/1999/xlink" 
	 viewBox="0 0 503.467 503.467" xml:space="preserve">
<g transform="translate(3 1)">
	<polygon style="fill:#FF7474;" points="427.933,429.933 479.133,429.933 479.133,378.733 427.933,378.733 	"/>
	<polygon style="fill:#50DD8E;" points="427.933,344.6 479.133,344.6 479.133,293.4 427.933,293.4 	"/>
	<polygon style="fill:#FFD0A1;" points="427.933,259.267 479.133,259.267 479.133,208.067 427.933,208.067 	"/>
	<path style="fill:#F2EDDA;" d="M52.467,71.533V498.2c-18.773,0-34.133-15.36-34.133-34.133V37.4
		C18.333,71.533,52.467,71.533,52.467,71.533L52.467,71.533z"/>
	<polygon style="fill:#80D6FA;" points="479.133,37.4 479.133,88.6 427.933,88.6 427.933,71.533 427.933,37.4 	"/>
	<polygon style="fill:#FFE079;" points="427.933,173.933 479.133,173.933 479.133,122.733 427.933,122.733 	"/>
	<path style="fill:#F2EDDA;" d="M427.933,88.6v34.133v51.2v34.133v51.2V293.4v51.2v34.133v51.2v34.133
		c0,17.92-15.36,34.133-34.133,34.133H52.467V71.533h375.467V88.6z"/>
	<path style="fill:#AAB1BA;" d="M427.933,37.4v34.133H52.467c0,0-34.133,0-34.133-34.133c0-18.773,14.507-34.133,34.133-34.133
		h375.467V37.4z"/>
</g>
<path style="fill:#51565F;" d="M396.8,503.467H55.467c-20.48,0-38.4-17.92-38.4-38.4v-435.2C17.067,13.653,30.72,0,46.933,0h384
	c2.56,0,4.267,1.707,4.267,4.267s-1.707,4.267-4.267,4.267h-384C34.987,8.533,25.6,17.92,25.6,29.867V38.4
	c0,29.013,29.013,29.867,29.867,29.867c2.56,0,4.267,1.707,4.267,4.267v392.533c0,2.56-1.707,4.267-4.267,4.267
	c-2.56,0-4.267-1.707-4.267-4.267V76.8c-7.68-0.853-18.773-4.267-25.6-12.8v401.067c0,16.213,13.653,29.867,29.867,29.867H396.8
	c16.213,0,29.867-13.653,29.867-29.867V76.8H89.6c-2.56,0-4.267-1.707-4.267-4.267c0-2.56,1.707-4.267,4.267-4.267h341.333
	c2.56,0,4.267,1.707,4.267,4.267v392.533C435.2,485.547,417.28,503.467,396.8,503.467z M482.133,435.2h-17.067
	c-2.56,0-4.267-1.707-4.267-4.267c0-2.56,1.707-4.267,4.267-4.267h12.8V384h-12.8c-2.56,0-4.267-1.707-4.267-4.267
	c0-2.56,1.707-4.267,4.267-4.267h17.067c2.56,0,4.267,1.707,4.267,4.267v51.2C486.4,433.493,484.693,435.2,482.133,435.2z
	 M294.4,401.067H192c-2.56,0-4.267-1.707-4.267-4.267s1.707-4.267,4.267-4.267h102.4c2.56,0,4.267,1.707,4.267,4.267
	S296.96,401.067,294.4,401.067z M328.533,366.933H157.867c-2.56,0-4.267-1.707-4.267-4.267s1.707-4.267,4.267-4.267h170.667
	c2.56,0,4.267,1.707,4.267,4.267S331.093,366.933,328.533,366.933z M482.133,349.867h-17.067c-2.56,0-4.267-1.707-4.267-4.267
	c0-2.56,1.707-4.267,4.267-4.267h12.8v-42.667h-12.8c-2.56,0-4.267-1.707-4.267-4.267c0-2.56,1.707-4.267,4.267-4.267h17.067
	c2.56,0,4.267,1.707,4.267,4.267v51.2C486.4,348.16,484.693,349.867,482.133,349.867z M243.2,298.667
	c-40.107,0-72.533-32.427-72.533-72.533S203.093,153.6,243.2,153.6s72.533,32.427,72.533,72.533
	c0,11.947-9.387,21.333-21.333,21.333c-5.973,0-11.947-2.56-15.36-6.827c-5.973,13.653-19.627,23.893-35.84,23.893
	c-21.333,0-38.4-17.067-38.4-38.4s17.067-38.4,38.4-38.4c11.947,0,23.04,5.973,29.867,14.507v-1.707c0-2.56,1.707-4.267,4.267-4.267
	s4.267,1.707,4.267,4.267v25.6c0,6.827,5.973,12.8,12.8,12.8s12.8-5.973,12.8-12.8c0-34.987-29.013-64-64-64s-64,29.013-64,64
	s29.013,64,64,64c17.067,0,33.28-6.827,45.227-18.773c1.707-1.707,4.267-1.707,5.973,0c1.707,1.707,1.707,4.267,0,5.973
	C280.747,290.987,261.973,298.667,243.2,298.667z M243.2,196.267c-16.213,0-29.867,13.653-29.867,29.867S226.987,256,243.2,256
	s29.867-13.653,29.867-29.867S259.413,196.267,243.2,196.267z M482.133,264.533h-17.067c-2.56,0-4.267-1.707-4.267-4.267
	c0-2.56,1.707-4.267,4.267-4.267h12.8v-42.667h-12.8c-2.56,0-4.267-1.707-4.267-4.267c0-2.56,1.707-4.267,4.267-4.267h17.067
	c2.56,0,4.267,1.707,4.267,4.267v51.2C486.4,262.827,484.693,264.533,482.133,264.533z M482.133,179.2h-17.067
	c-2.56,0-4.267-1.707-4.267-4.267c0-2.56,1.707-4.267,4.267-4.267h12.8V128h-12.8c-2.56,0-4.267-1.707-4.267-4.267
	c0-2.56,1.707-4.267,4.267-4.267h17.067c2.56,0,4.267,1.707,4.267,4.267v51.2C486.4,177.493,484.693,179.2,482.133,179.2z
	 M482.133,93.867h-17.067c-2.56,0-4.267-1.707-4.267-4.267c0-2.56,1.707-4.267,4.267-4.267h12.8V42.667h-422.4
	c-2.56,0-4.267-1.707-4.267-4.267s1.707-4.267,4.267-4.267h426.667c2.56,0,4.267,1.707,4.267,4.267v51.2
	C486.4,92.16,484.693,93.867,482.133,93.867z"/>
</svg>